<?xml version="1.0" encoding="UTF-8"?>
<svg width="111px" height="22px" viewBox="0 0 111 22" version="1.1" xmlns="http://www.w3.org/2000/svg" xmlns:xlink="http://www.w3.org/1999/xlink">
    <title>切片</title>
    <defs>
        <polygon id="path-1" points="0 0.000141935484 13.9302226 0.000141935484 13.9302226 13.9357226 0 13.9357226"></polygon>
        <polygon id="path-3" points="5.32258065e-05 0.334258065 11.0003194 0.334258065 11.0003194 8.51612903 5.32258065e-05 8.51612903"></polygon>
        <polygon id="path-5" points="0.0820697614 0.020172685 16.2345806 0.020172685 16.2345806 18.5432181 0.0820697614 18.5432181"></polygon>
    </defs>
    <g id="faucet" stroke="none" stroke-width="1" fill="none" fill-rule="evenodd">
        <g id="Faucet_web1" transform="translate(-16.000000, -19.000000)">
            <g id="ChainX_logo" transform="translate(16.000000, 19.000000)">
                <rect id="矩形" x="0" y="0" width="111" height="22"></rect>
                <g id="ChainX-Logo" transform="translate(0.000000, 0.000000)">
                    <g id="编组">
                        <mask id="mask-2" fill="white">
                            <use xlink:href="#path-1"></use>
                        </mask>
                        <g id="Clip-2"></g>
                        <path d="M12.6272548,6.33844839 L9.13777097,2.84754516 C9.06822258,2.77799677 8.95538387,2.77799677 8.88619032,2.84754516 L7.50196452,4.23212581 C7.43241613,4.30167419 7.43241613,4.4145129 7.50196452,4.48370645 L10.957029,7.94054516 C11.8019,8.78541613 11.8242548,10.1909323 10.9655452,11.0216097 C10.1309645,11.8285129 8.79570645,11.8199968 7.97177097,10.9957065 L2.93873871,5.9609 C2.11480323,5.13660968 2.1062871,3.80099677 2.91319032,2.96606129 C3.74315806,2.10664194 5.14831935,2.12899677 5.99283548,2.97422258 L6.4952871,3.47702903 C6.56483548,3.54657742 6.67767419,3.54657742 6.74722258,3.47702903 L8.13109355,2.09244839 C8.20064194,2.0229 8.20064194,1.91006129 8.13109355,1.8405129 L7.59422258,1.30364194 C5.85693226,-0.434358065 3.04022258,-0.434358065 1.30293226,1.30364194 C-0.434358065,3.0412871 -0.434358065,5.85906129 1.30293226,7.59706129 L6.33596452,12.6322226 C8.07325484,14.3702226 10.8899645,14.3702226 12.6272548,12.6322226 C14.3645452,10.8942226 14.3645452,8.07644839 12.6272548,6.33844839" id="Fill-1" fill="#EA754B" mask="url(#mask-2)"></path>
                    </g>
                    <path d="M20.6972452,1.30381935 C18.9596,-0.434535484 16.1428903,-0.434535484 14.4059548,1.30381935 L10.9998581,4.71098065 L12.6275032,6.33862581 C12.6299871,6.34146452 12.632471,6.34430323 12.6353097,6.3467871 L16.0410516,2.93962581 C16.8742129,2.10752903 18.2289871,2.10752903 19.0610839,2.93962581 C19.8935355,3.7727871 19.8935355,5.12827097 19.0610839,5.96143226 L18.5249226,6.49759355 C18.4553742,6.56714194 18.4553742,6.67998065 18.5249226,6.74952903 L19.9091484,8.13410968 C19.9786968,8.20365806 20.0911806,8.20365806 20.160729,8.13410968 L20.6972452,7.59723871 C22.4338258,5.85923871 22.4338258,3.04181935 20.6972452,1.30381935" id="Fill-3" fill="#34C69A"></path>
                    <path d="M17.7698258,7.50448387 C17.7002774,7.43493548 17.5877935,7.43493548 17.5182452,7.50448387 L14.0276968,10.9957419 C13.8712129,11.1522258 13.6959226,11.2796129 13.5092774,11.3775484 C12.7037935,11.7994516 11.6843419,11.6720645 11.0080194,10.9957419 C11.0055355,10.9932581 11.0019871,10.9893548 10.9998581,10.986871 C10.1787613,10.1565484 10.1787613,8.81312903 10.9998581,7.98280645 L9.36476129,6.347 C8.00892258,7.70887097 7.71795484,9.73074194 8.49114839,11.3775484 C8.70369677,11.8313871 8.9982129,12.2579032 9.37256774,12.6326129 C9.84876129,13.1088065 10.4065677,13.4540645 10.9998581,13.6694516 C11.4895355,13.8465161 12.0036968,13.9355806 12.5178581,13.9355806 C13.6568903,13.9355806 14.7948581,13.5012581 15.6638581,12.6326129 L19.1540516,9.141 C19.2236,9.07145161 19.2236,8.95896774 19.1540516,8.88941935 L17.7698258,7.50448387 Z" id="Fill-5" fill="#34C69A"></path>
                    <path d="M20.6970677,14.411029 L17.2916806,11.0042226 L15.6558742,12.6403839 L19.0612613,16.0471903 C19.8859065,16.8721903 19.8937129,18.2081581 19.0864548,19.0427387 C18.2561323,19.9014484 16.8516806,19.8787387 16.0071645,19.0338677 L15.5047129,18.5310613 C15.4351645,18.4618677 15.3226806,18.4618677 15.2531323,18.5310613 L13.8689065,19.9159968 C13.7993581,19.9851903 13.7993581,20.098029 13.8689065,20.1675774 L14.3500677,20.6490935 C16.0930355,22.3924161 18.9895839,22.4374806 20.7197774,20.6817387 C21.5735194,19.8152226 22.0000355,18.6864806 22.0000355,17.5584484 C22.0000355,16.4194161 21.5660677,15.280029 20.6970677,14.411029" id="Fill-7" fill="#F6C94A"></path>
                    <path d="M14.4981419,17.775929 C14.5676903,17.7063806 14.5676903,17.5938968 14.4981419,17.5243484 L11.0086581,14.0334452 C10.8518194,13.8766065 10.7240774,13.7009613 10.6264968,13.5139613 C10.2056581,12.7091871 10.3323355,11.6890258 11.0086581,11.0123484 L11.0164645,11.0041871 C11.8471419,10.1823806 13.1894968,10.1823806 14.0201742,11.0041871 L15.6559806,9.36767097 C14.2930452,8.0121871 12.2718839,7.72086452 10.6264968,8.4944129 C10.1723032,8.70696129 9.74756129,9.00112258 9.37285161,9.3761871 C8.89665806,9.85238065 8.55104516,10.4094774 8.33672258,11.0041871 C8.15859355,11.4931548 8.06988387,12.0087355 8.06988387,12.5236065 C8.06988387,13.6626387 8.50456129,14.8013161 9.37285161,15.6696065 L12.8623355,19.1605097 C12.9318839,19.2300581 13.0443677,19.2300581 13.1139161,19.1605097 L14.4981419,17.775929 Z" id="Fill-9" fill="#F6C94A"></path>
                    <path d="M13.6694161,11.0130226 C13.6232871,10.8813774 13.5697065,10.7515065 13.5093839,10.6230548 C13.2975452,10.1685065 13.003029,9.7427 12.6276097,9.36799032 C12.2546742,8.99434516 11.8313516,8.70053871 11.3792871,8.48799032 C11.2558032,8.4290871 11.1291258,8.37763548 11.0020935,8.33115161 C9.43157742,7.76163548 7.60699677,8.10440968 6.34519032,9.36018387 L7.98064194,10.9959903 C8.13535161,10.8430548 8.30815806,10.7181516 8.49125484,10.6223452 C9.29744839,10.2011516 10.3169,10.3285387 10.9925129,11.0041516 L11.0003194,11.0123129 C11.6738032,11.6932484 11.7955129,12.7183774 11.364029,13.5231516 C11.2699968,13.7009258 11.1486419,13.8673452 11.0003194,14.0170871 L12.6364806,15.6539581 C13.8855129,14.3971194 14.230771,12.5796355 13.6694161,11.0130226" id="Fill-11" fill="#46AEE2"></path>
                    <path d="M4.47827742,14.4997387 L6.34543871,12.6318677 L4.7099871,10.9960613 L2.84282581,12.8635774 C2.77327742,12.932771 2.77327742,13.0456097 2.84282581,13.1151581 L4.22669677,14.4997387 C4.29624516,14.5692871 4.40872903,14.5692871 4.47827742,14.4997387" id="Fill-13" fill="#46AEE2"></path>
                    <g id="编组" transform="translate(0.000000, 13.483871)">
                        <mask id="mask-4" fill="white">
                            <use xlink:href="#path-3"></use>
                        </mask>
                        <g id="Clip-16"></g>
                        <path d="M5.95912581,5.57629032 C5.12631935,6.40945161 3.77119032,6.40945161 2.93944839,5.57629032 C2.10664194,4.74312903 2.10664194,3.38835484 2.93944839,2.55519355 L3.47170645,2.02293548 C3.54125484,1.9533871 3.54125484,1.84054839 3.47170645,1.771 L2.08783548,0.386419355 C2.0182871,0.316870968 1.90544839,0.316870968 1.8359,0.386419355 L1.3032871,0.919387097 C-0.434358065,2.65774194 -0.434358065,5.47480645 1.3032871,7.21316129 C2.17264194,8.08180645 3.31025484,8.51719355 4.44822258,8.51613098 C5.58725484,8.51613098 6.72593226,8.08180645 7.5952871,7.21316129 L11.0003194,3.806 L9.36486774,2.16983871 L5.95912581,5.57629032 Z" id="Fill-15" fill="#46AEE2" mask="url(#mask-4)"></path>
                    </g>
                    <path d="M38.5476548,19.6161581 C37.2439774,20.4791258 35.711429,20.9106097 33.9496548,20.9106097 C32.2414613,20.9106097 30.7582355,20.5422871 29.4999774,19.8049323 C28.2413645,19.0679323 27.2705258,18.0073194 26.5874613,16.6227387 C25.9040419,15.2385129 25.5626871,13.6115774 25.5626871,11.7415774 C25.5626871,9.87193226 25.9040419,8.24499677 26.5874613,6.86041613 C27.2705258,5.47619032 28.2413645,4.41557742 29.4999774,3.67822258 C30.7582355,2.94122258 32.2325903,2.57254516 33.9226871,2.57254516 C35.7025581,2.57254516 37.1992677,2.94122258 38.4128161,3.67822258 C39.5110419,4.34567419 40.3332032,5.29983548 40.8793,6.54106129 C40.9747516,6.75857742 40.8821387,7.01264194 40.6649774,7.1095129 L38.875171,7.90683548 C38.5785258,8.03919032 38.2350419,7.89938387 38.105171,7.60238387 C37.7627516,6.81960968 37.3128161,6.22667419 36.7543,5.82215806 C36.0708806,5.32786774 35.1809452,5.08054516 34.0844935,5.08054516 C32.4124935,5.08054516 31.0775903,5.66957742 30.0797839,6.84693226 C29.0819774,8.02464194 28.5830742,9.65619032 28.5830742,11.7415774 C28.5830742,13.8450613 29.0592677,15.4812226 30.0123645,16.6497065 C30.9651065,17.8185452 32.2865258,18.4026097 33.9766226,18.4026097 C35.1270097,18.4026097 36.0935903,18.1155452 36.8756548,17.5396419 C37.5324613,17.0570613 38.0334935,16.3839323 38.3794613,15.5206097 C38.4940742,15.2356742 38.8095258,15.0877065 39.1008484,15.1845774 L40.8966871,15.7835452 C41.1312355,15.8616097 41.2458484,16.1213516 41.1543,16.3512871 C40.6007516,17.744029 39.7317516,18.8323194 38.5476548,19.6161581" id="Fill-17" fill="#282828"></path>
                    <path d="M54.431371,8.18194194 C55.3752419,9.04490968 55.8471774,10.2854258 55.8471774,11.9034903 L55.8471774,20.0591032 C55.8471774,20.3802323 55.5867258,20.6410387 55.2652419,20.6410387 L53.5439194,20.6410387 C53.2224355,20.6410387 52.961629,20.3802323 52.961629,20.0591032 L52.961629,12.8203935 C52.961629,10.4472323 51.9996613,9.26065161 50.0760806,9.26065161 C49.0690484,9.26065161 48.2060806,9.61123226 47.4871774,10.3123935 C46.7679194,11.0135548 46.4084677,12.0833935 46.4084677,13.5215548 L46.4084677,20.0591032 C46.4084677,20.3802323 46.1480161,20.6410387 45.8265323,20.6410387 L44.1048548,20.6410387 C43.7837258,20.6410387 43.5229194,20.3802323 43.5229194,20.0591032 L43.5229194,1.67136129 C43.5229194,1.34987742 43.7837258,1.08942581 44.1048548,1.08942581 L45.8265323,1.08942581 C46.1480161,1.08942581 46.4084677,1.34987742 46.4084677,1.67136129 L46.4084677,9.3145871 C46.8576935,8.4878129 47.4555968,7.87642581 48.2018226,7.48078065 C48.9476935,7.08549032 49.8064032,6.88749032 50.7772419,6.88749032 C52.2693387,6.88749032 53.4875,7.31897419 54.431371,8.18194194" id="Fill-19" fill="#282828"></path>
                    <path d="M65.7979903,18.0250968 C66.5349903,17.5577742 66.9036677,16.9375161 66.9036677,16.1643226 L66.9036677,14.5462581 L63.9641839,15.1395484 C63.0291839,15.3194516 62.3368935,15.5710323 61.8876677,15.8946452 C61.4380871,16.2182581 61.2134742,16.6497419 61.2134742,17.1890968 C61.2134742,17.6926129 61.3887645,18.0747742 61.7393452,18.3352258 C62.0899258,18.5960323 62.588829,18.7262581 63.2360548,18.7262581 C64.2068935,18.7262581 65.0606355,18.4927742 65.7979903,18.0250968 M71.7312484,19.1978387 L71.6311839,20.2240323 C71.6084742,20.4575161 71.4495065,20.6565806 71.2252484,20.7264839 C70.8324419,20.8492581 70.398829,20.9106452 69.9240548,20.9106452 C69.1508613,20.9106452 68.5352161,20.7577097 68.0767645,20.4521935 C67.6183129,20.1466774 67.3170548,19.6342903 67.1733452,18.9150323 C66.7596032,19.5445161 66.148571,20.0341935 65.3395387,20.3847742 C64.5305065,20.7353548 63.6224742,20.9106452 62.6157968,20.9106452 C61.3032484,20.9106452 60.2426355,20.605129 59.4336032,19.9937419 C58.624571,19.3827097 58.2200548,18.5105161 58.2200548,17.377871 C58.2200548,16.3172581 58.6604097,15.4227097 59.5414742,14.6945806 C60.4221839,13.9664516 61.7347323,13.4498065 63.4787645,13.1439355 L66.4200226,12.6347419 C66.6996355,12.586129 66.9036677,12.3437742 66.9036677,12.0602581 L66.9036677,11.8225161 C66.9036677,10.9957419 66.6609581,10.3439032 66.1755387,9.86735484 C65.6901194,9.39116129 65.0159258,9.15270968 64.1529581,9.15270968 C62.595571,9.15270968 61.5129581,9.77225806 60.9054742,11.011 C60.7596355,11.3083548 60.4072806,11.4385806 60.1145387,11.2831613 L58.9960871,10.6905806 C58.606829,10.4840645 58.4964742,10.1774839 58.6082484,9.91312903 C58.969829,9.05796774 59.5730548,8.36425806 60.4179258,7.83129032 C61.4157323,7.20216129 62.6427645,6.88741935 64.0990226,6.88741935 C65.8427,6.88741935 67.2272806,7.29193548 68.2520548,8.10096774 C69.276829,8.91 69.7892161,10.0965806 69.7892161,11.6607097 L69.7892161,17.7554194 C69.7892161,18.097129 69.8655065,18.3487097 70.0184419,18.5105161 C70.1710226,18.6723226 70.4272161,18.7532258 70.7870226,18.7532258 C70.9623129,18.7532258 71.124829,18.7464839 71.2756355,18.7322903 C71.5396355,18.7074516 71.7567968,18.9338387 71.7312484,19.1978387" id="Fill-21" fill="#282828"></path>
                    <path d="M75.7348581,20.6409677 L74.0099871,20.6409677 C73.6895677,20.6409677 73.429471,20.3812258 73.429471,20.0608065 L73.429471,7.7376129 C73.429471,7.41683871 73.6895677,7.15709677 74.0099871,7.15709677 L75.7348581,7.15709677 C76.0552774,7.15709677 76.3150194,7.41683871 76.3150194,7.7376129 L76.3150194,20.0608065 C76.3150194,20.3812258 76.0552774,20.6409677 75.7348581,20.6409677 M73.4564387,4.41987097 C73.114729,4.10548387 72.9440516,3.66051613 72.9440516,3.08496774 C72.9440516,2.50977419 73.114729,2.06941935 73.4564387,1.76354839 C73.7977935,1.45803226 74.2743419,1.30509677 74.885729,1.30509677 C75.4967613,1.30509677 75.9686968,1.45803226 76.3015355,1.76354839 C76.6340194,2.06941935 76.8004387,2.50977419 76.8004387,3.08496774 C76.8004387,3.66051613 76.6340194,4.10548387 76.3015355,4.41987097 C75.9686968,4.7346129 75.4967613,4.89180645 74.885729,4.89180645 C74.2743419,4.89180645 73.7977935,4.7346129 73.4564387,4.41987097" id="Fill-23" fill="#282828"></path>
                    <path d="M90.6481258,8.18194194 C91.5919968,9.04490968 92.0639323,10.2854258 92.0639323,11.9034903 L92.0639323,20.2145226 C92.0639323,20.4501355 91.873029,20.6410387 91.637771,20.6410387 L89.6049,20.6410387 C89.3692871,20.6410387 89.1783839,20.4501355 89.1783839,20.2145226 L89.1783839,12.8203935 C89.1783839,10.4472323 88.2164161,9.26065161 86.2928355,9.26065161 C85.2858032,9.26065161 84.4228355,9.60697419 83.7039323,10.2989097 C82.9846742,10.9912 82.6252226,12.0564258 82.6252226,13.4945871 L82.6252226,20.2145226 C82.6252226,20.4501355 82.4343194,20.6410387 82.1987065,20.6410387 L80.1661903,20.6410387 C79.9305774,20.6410387 79.7396742,20.4501355 79.7396742,20.2145226 L79.7396742,7.58190968 C79.7396742,7.34736129 79.9298677,7.15716774 80.164771,7.15716774 L81.9017065,7.15716774 C82.1263194,7.15716774 82.3122548,7.33210323 82.3257387,7.55636129 L82.4364484,9.39549032 C82.8856742,8.55061935 83.5059323,7.92149032 84.2972226,7.50774839 C85.0881581,7.09436129 85.9869645,6.88749032 86.9939968,6.88749032 C88.4860935,6.88749032 89.7042548,7.31897419 90.6481258,8.18194194" id="Fill-25" fill="#282828"></path>
                    <g id="编组" transform="translate(94.387097, 2.129032)">
                        <mask id="mask-6" fill="white">
                            <use xlink:href="#path-5"></use>
                        </mask>
                        <g id="Clip-28"></g>
                        <path d="M16.1281645,17.6265774 L10.1076161,9.02848065 L15.7733258,0.93673871 C16.0451323,0.549254839 15.7651645,0.0166419355 15.2921645,0.020172685 L12.8022613,0.0393516129 C12.6138419,0.040416129 12.4374871,0.133029032 12.3292613,0.287383871 L8.1584871,6.39167419 L3.98735806,0.287383871 C3.87913226,0.133029032 3.70313226,0.040416129 3.5147129,0.0393516129 L1.02480968,0.020172685 C0.551809677,0.0166419355 0.271841935,0.549254839 0.543293548,0.93673871 L6.20900323,9.02848065 L0.188454839,17.6265774 C-0.084416129,18.0165452 0.199809677,18.5512871 0.675648387,18.5432181 L3.18293871,18.4991258 C3.36922903,18.4959323 3.54274516,18.4036742 3.64990645,18.2510935 L8.1584871,11.7142548 L12.6667129,18.2510935 C12.7738742,18.4036742 12.9473903,18.4959323 13.1340355,18.4991258 L15.640971,18.5432181 C16.1168097,18.5512871 16.4013903,18.0165452 16.1281645,17.6265774" id="Fill-27" fill="#F6C94A" mask="url(#mask-6)"></path>
                    </g>
                </g>
            </g>
        </g>
    </g>
</svg>