<?xml version="1.0" encoding="UTF-8"?>
<svg width="12px" height="8px" viewBox="0 0 12 8" version="1.1" xmlns="http://www.w3.org/2000/svg" xmlns:xlink="http://www.w3.org/1999/xlink">
    <title>Icon - Keyboard Arrow - Down - Rounded</title>
    <g id="faucet" stroke="none" stroke-width="1" fill="none" fill-rule="evenodd">
        <g id="Faucet_web2" transform="translate(-804.000000, -249.000000)" fill="#000000" fill-rule="nonzero">
            <g id="Icon---Keyboard-Arrow---Down---Rounded" transform="translate(804.000000, 249.000000)">
                <path d="M9.9850588,0.453918082 L5.89514232,4.54383456 L1.80522585,0.453918082 L1.80522584,0.453918075 C1.41882633,0.0484919786 0.776924018,0.0330683278 0.371503078,0.419468227 C0.359745589,0.430673957 0.348259062,0.442160523 0.337053229,0.453918075 L0.337053234,0.45391807 C-0.0683728624,0.840317582 -0.0837965131,1.48221989 0.302603386,1.88764083 C0.313809116,1.89939832 0.325295682,1.91088485 0.337053234,1.92209068 L5.16106588,6.74610333 L5.16106587,6.74610331 C5.54746538,7.15152941 6.18936769,7.16695306 6.59478863,6.78055316 C6.60654612,6.76934743 6.61803264,6.75786086 6.62923848,6.74610331 L11.4532511,1.92209067 L11.4532511,1.92209066 C11.8627726,1.52075991 11.8694126,0.863435244 11.4680821,0.453911213 C11.0667513,0.0443897594 10.4094267,0.0377497907 9.99990263,0.439080273 C9.99490918,0.443973844 9.9899653,0.448917727 9.98507169,0.453911213 L9.9850588,0.453918082 Z" id="路径"></path>
            </g>
        </g>
    </g>
</svg>